# Blender 4.2.2 LTS
# www.blender.org
mtllib 01StageCollision.mtl
o 立方体
v -5.000001 -0.000002 15.000000
v -5.000001 7.999998 15.000000
v -5.000001 -0.000002 5.000000
v -5.000001 7.999998 5.000000
v 14.999999 7.999998 15.000000
v 14.999999 -0.000002 5.000000
v 14.999999 7.999998 5.000000
v -15.000000 0.000000 15.000000
v 15.000000 0.000000 15.000000
v -15.000000 0.000000 -15.000000
v 15.000000 0.000000 -15.000000
v -15.000001 24.000000 15.000000
v -14.999999 0.000000 15.000000
v -15.000001 24.000000 -15.000000
v -14.999999 0.000000 -15.000000
v 14.999987 24.000000 -15.000000
v 14.999989 0.000000 -15.000000
v 14.999996 24.000000 15.000000
v 14.999998 0.000000 15.000000
v 14.999999 24.000000 14.999999
v 15.000001 0.000000 14.999999
v -15.000001 23.999998 15.000001
v -14.999999 -0.000002 15.000001
v -15.000001 23.999998 -14.999985
v -14.999999 -0.000002 -14.999985
v 14.999999 24.000000 -15.000000
v 15.000001 0.000000 -15.000000
v -15.000001 -0.000002 5.400000
v -15.000001 5.999998 5.400000
v -15.000001 -0.000002 5.000000
v -15.000001 5.999998 5.000000
v -5.000001 -0.000002 5.400000
v -5.000001 5.999998 5.400000
v -5.000001 -0.000002 5.000000
v -5.000001 5.999998 5.000000
v -15.000001 3.999998 15.000000
v -15.000001 -0.000002 13.000000
v -15.000001 3.999998 13.000000
v -13.000001 -0.000002 15.000000
v -13.000001 3.999998 15.000000
v -13.000001 -0.000002 13.000000
v -13.000001 3.999998 13.000000
v -11.600001 6.199998 14.960000
v -8.400001 6.199998 14.960000
v -11.600001 6.199998 13.040000
v -8.400001 6.199998 13.040000
v -11.600001 5.799998 14.960000
v -8.400001 5.799998 14.960000
v -11.600001 5.799998 13.040000
v -8.400001 5.799998 13.040000
v -15.000001 -0.000002 11.000000
v -15.000001 1.999998 11.000000
v -15.000001 -0.000002 9.000000
v -15.000001 1.999998 9.000000
v -13.000001 -0.000002 11.000000
v -13.000001 1.999998 11.000000
v -13.000001 -0.000002 9.000000
v -13.000001 1.999998 9.000000
v 13.000000 2.000000 -1.000000
v 13.000000 4.000000 -1.000000
v 13.000000 2.000000 -5.000000
v 13.000000 4.000000 -5.000000
v 15.000000 2.000000 -1.000000
v 15.000000 4.000000 -1.000000
v 15.000000 2.000000 -5.000000
v 15.000000 4.000000 -5.000000
v 13.000000 0.000000 0.000000
v 13.000000 2.000000 0.000000
v 13.000000 0.000000 -10.000000
v 13.000000 2.000000 -10.000000
v 15.000000 0.000000 0.000000
v 15.000000 2.000000 0.000000
v 15.000000 0.000000 -10.000000
v 15.000000 2.000000 -10.000000
v -6.000000 0.000000 -3.000000
v -6.000000 4.000000 -3.000000
v -6.000000 0.000000 -5.000000
v -6.000000 4.000000 -5.000000
v -4.000000 0.000000 -3.000000
v -4.000000 4.000000 -3.000000
v -4.000000 0.000000 -5.000000
v -4.000000 4.000000 -5.000000
v -1.000000 0.000000 -5.000000
v -1.000000 2.000000 -5.000000
v -1.000000 0.000000 -7.000000
v -1.000000 2.000000 -7.000000
v 1.000000 0.000000 -5.000000
v 1.000000 2.000000 -5.000000
v 1.000000 0.000000 -7.000000
v 1.000000 2.000000 -7.000000
v -12.000000 0.000000 2.000000
v -12.000000 8.000000 2.000000
v -12.000000 0.000000 0.000000
v -12.000000 8.000000 0.000000
v -10.000000 0.000000 2.000000
v -10.000000 8.000000 2.000000
v -10.000000 0.000000 0.000000
v -10.000000 8.000000 0.000000
v -9.000000 0.000000 -6.000000
v -9.000000 6.000000 -6.000000
v -9.000000 0.000000 -8.000000
v -9.000000 6.000000 -8.000000
v -7.000000 0.000000 -6.000000
v -7.000000 6.000000 -6.000000
v -7.000000 0.000000 -8.000000
v -7.000000 6.000000 -8.000000
v -12.000000 0.000000 -2.000000
v -12.000000 6.000000 -2.000000
v -12.000000 0.000000 -4.000000
v -12.000000 6.000000 -4.000000
v -10.000000 0.000000 -2.000000
v -10.000000 6.000000 -2.000000
v -10.000000 0.000000 -4.000000
v -10.000000 6.000000 -4.000000
v -5.000000 0.000000 -9.000000
v -5.000000 3.000000 -9.000000
v -5.000000 0.000000 -11.000000
v -5.000000 3.000000 -11.000000
v -3.000000 0.000000 -9.000000
v -3.000000 3.000000 -9.000000
v -3.000000 0.000000 -11.000000
v -3.000000 3.000000 -11.000000
vn -1.0000 -0.0000 -0.0000
vn -0.0000 -0.0000 -1.0000
vn -0.0000 1.0000 -0.0000
vn 1.0000 -0.0000 -0.0000
vn -0.0000 -0.0000 1.0000
vn -0.0000 -1.0000 -0.0000
vt 0.375000 0.000000
vt 0.625000 0.000000
vt 0.625000 0.250000
vt 0.375000 0.250000
vt 0.625000 0.500000
vt 0.375000 0.500000
vt 0.875000 0.500000
vt 0.875000 0.750000
vt 0.625000 0.750000
vt 0.000000 0.000000
vt 1.000000 0.000000
vt 1.000000 1.000000
vt 0.000000 1.000000
vt 0.375000 0.750000
vt 0.625000 1.000000
vt 0.375000 1.000000
vt 0.125000 0.500000
vt 0.125000 0.750000
vt 0.240994 0.319119
vt 0.759007 0.319119
vt 0.759007 0.837132
vt 0.240994 0.837132
vt 0.240490 0.314708
vt 0.759510 0.314708
vt 0.759510 0.833729
vt 0.240490 0.833729
s 0
usemtl マテリアル.003
f 1/1/1 2/2/1 4/3/1 3/4/1
f 3/4/2 4/3/2 7/5/2 6/6/2
f 7/5/3 4/7/3 2/8/3 5/9/3
f 8/10/3 9/11/3 11/12/3 10/13/3
f 12/10/4 13/11/4 15/12/4 14/13/4
f 16/10/1 17/11/1 19/12/1 18/13/1
f 20/10/2 21/11/2 23/12/2 22/13/2
f 24/10/5 25/11/5 27/12/5 26/13/5
f 30/4/2 31/3/2 35/5/2 34/6/2
f 32/14/5 33/9/5 29/15/5 28/16/5
f 35/5/3 31/7/3 29/8/3 33/9/3
f 37/4/2 38/3/2 42/5/2 41/6/2
f 41/6/4 42/5/4 40/9/4 39/14/4
f 42/5/3 38/7/3 36/8/3 40/9/3
f 43/1/3 44/2/3 46/3/3 45/4/3
f 45/4/2 46/3/2 50/5/2 49/6/2
f 49/6/6 50/5/6 48/9/6 47/14/6
f 45/17/1 49/6/1 47/14/1 43/18/1
f 50/5/4 46/7/4 44/8/4 48/9/4
f 53/4/2 54/3/2 58/5/2 57/6/2
f 57/6/4 58/5/4 56/9/4 55/14/4
f 55/14/5 56/9/5 52/15/5 51/16/5
f 58/5/3 54/7/3 52/8/3 56/9/3
f 59/1/1 60/2/1 62/3/1 61/4/1
f 61/4/2 62/3/2 66/5/2 65/6/2
f 63/14/5 64/9/5 60/15/5 59/16/5
f 66/5/3 62/7/3 60/8/3 64/9/3
f 67/19/1 68/20/1 70/21/1 69/22/1
f 69/4/2 70/3/2 74/5/2 73/6/2
f 71/14/5 72/9/5 68/15/5 67/16/5
f 74/23/3 70/24/3 68/25/3 72/26/3
f 75/1/1 76/2/1 78/3/1 77/4/1
f 77/4/2 78/3/2 82/5/2 81/6/2
f 81/6/4 82/5/4 80/9/4 79/14/4
f 79/14/5 80/9/5 76/15/5 75/16/5
f 77/17/6 81/6/6 79/14/6 75/18/6
f 82/5/3 78/7/3 76/8/3 80/9/3
f 83/1/1 84/2/1 86/3/1 85/4/1
f 85/4/2 86/3/2 90/5/2 89/6/2
f 89/6/4 90/5/4 88/9/4 87/14/4
f 87/14/5 88/9/5 84/15/5 83/16/5
f 85/17/6 89/6/6 87/14/6 83/18/6
f 90/5/3 86/7/3 84/8/3 88/9/3
f 91/1/1 92/2/1 94/3/1 93/4/1
f 93/4/2 94/3/2 98/5/2 97/6/2
f 97/6/4 98/5/4 96/9/4 95/14/4
f 95/14/5 96/9/5 92/15/5 91/16/5
f 93/17/6 97/6/6 95/14/6 91/18/6
f 98/5/3 94/7/3 92/8/3 96/9/3
f 99/1/1 100/2/1 102/3/1 101/4/1
f 101/4/2 102/3/2 106/5/2 105/6/2
f 105/6/4 106/5/4 104/9/4 103/14/4
f 103/14/5 104/9/5 100/15/5 99/16/5
f 101/17/6 105/6/6 103/14/6 99/18/6
f 106/5/3 102/7/3 100/8/3 104/9/3
f 107/1/1 108/2/1 110/3/1 109/4/1
f 109/4/2 110/3/2 114/5/2 113/6/2
f 113/6/4 114/5/4 112/9/4 111/14/4
f 111/14/5 112/9/5 108/15/5 107/16/5
f 109/17/6 113/6/6 111/14/6 107/18/6
f 114/5/3 110/7/3 108/8/3 112/9/3
f 115/1/1 116/2/1 118/3/1 117/4/1
f 117/4/2 118/3/2 122/5/2 121/6/2
f 121/6/4 122/5/4 120/9/4 119/14/4
f 119/14/5 120/9/5 116/15/5 115/16/5
f 117/17/6 121/6/6 119/14/6 115/18/6
f 122/5/3 118/7/3 116/8/3 120/9/3
