# Blender 4.4.3
# www.blender.org
mtllib Stage2Collision.mtl
o 立方体.002
v -15.000000 -0.000003 -11.999975
v -15.000000 15.999997 -12.000028
v -15.000000 -0.000004 -15.000000
v -15.000000 15.999997 -15.000051
v 15.000000 -0.000003 -11.999975
v 15.000000 15.999997 -12.000028
v 15.000000 -0.000004 -15.000000
v 15.000000 15.999997 -15.000051
v -15.000000 0.000004 15.000000
v -15.000000 -0.000004 -15.000000
v 15.000000 0.000004 15.000000
v 15.000000 -0.000004 -15.000000
v -15.000000 0.000004 15.000000
v -15.000000 16.000006 14.999999
v -15.000000 0.000004 12.000000
v -15.000000 16.000000 11.999999
v 15.000000 0.000004 15.000000
v 15.000000 16.000006 14.999999
v 15.000000 0.000004 12.000000
v 15.000000 16.000000 11.999999
v 11.000000 0.000004 12.000000
v 11.000000 13.000003 11.999997
v 11.000000 0.000003 8.000000
v 11.000000 13.000002 7.999997
v 15.000000 0.000004 12.000000
v 15.000000 13.000003 11.999997
v 15.000000 0.000003 8.000000
v 15.000000 13.000002 7.999997
v 7.000000 0.000004 12.000000
v 7.000000 10.000003 11.999997
v 7.000000 0.000003 8.000000
v 7.000000 10.000003 7.999997
v 11.000000 0.000004 12.000000
v 11.000000 10.000003 11.999997
v 11.000000 0.000003 8.000000
v 11.000000 10.000003 7.999997
v 7.000000 0.000002 8.000000
v 7.000000 7.000000 8.000000
v 7.000000 0.000000 4.000000
v 7.000000 7.000000 4.000000
v 11.000000 0.000002 8.000000
v 11.000000 7.000000 8.000000
v 11.000000 0.000000 4.000000
v 11.000000 7.000000 4.000000
v 11.000000 0.000002 8.000000
v 11.000000 4.000000 8.000000
v 11.000000 0.000000 4.000000
v 11.000000 4.000000 4.000000
v 15.000000 0.000002 8.000000
v 15.000000 4.000000 8.000000
v 15.000000 0.000000 4.000000
v 15.000000 4.000000 4.000000
v 11.000000 0.000000 4.000000
v 11.000000 2.000000 4.000000
v 11.000000 0.000000 0.000000
v 11.000000 2.000000 -0.000000
v 15.000000 0.000000 4.000000
v 15.000000 2.000000 4.000000
v 15.000000 0.000000 0.000000
v 15.000000 2.000000 -0.000000
vn -1.0000 -0.0000 -0.0000
vn -0.0000 -0.0000 -1.0000
vn 1.0000 -0.0000 -0.0000
vn -0.0000 -0.0000 1.0000
vn -0.0000 -1.0000 -0.0000
vn -0.0000 1.0000 -0.0000
vt 0.375000 0.000000
vt 0.625000 0.000000
vt 0.625000 0.250000
vt 0.375000 0.250000
vt 0.625000 0.500000
vt 0.375000 0.500000
vt 0.625000 0.750000
vt 0.375000 0.750000
vt 0.625000 1.000000
vt 0.375000 1.000000
vt 0.125000 0.500000
vt 0.125000 0.750000
vt 0.875000 0.500000
vt 0.875000 0.750000
vt 0.000000 0.000000
s 1
usemtl マテリアル.008
f 1/1/1 2/2/1 4/3/1 3/4/1
f 3/4/2 4/3/2 8/5/2 7/6/2
f 7/6/3 8/5/3 6/7/3 5/8/3
f 5/8/4 6/7/4 2/9/4 1/10/4
f 3/11/5 7/6/5 5/8/5 1/12/5
f 8/5/6 4/13/6 2/14/6 6/7/6
f 10/11/6 9/12/6 11/8/6 12/6/6
f 13/1/1 14/2/1 16/3/1 15/4/1
f 15/4/2 16/3/2 20/5/2 19/6/2
f 19/6/3 20/5/3 18/7/3 17/8/3
f 17/8/4 18/7/4 14/9/4 13/10/4
f 15/11/5 19/6/5 17/8/5 13/12/5
f 20/5/6 16/13/6 14/14/6 18/7/6
f 21/1/1 22/2/1 24/3/1 23/4/1
f 23/4/2 24/3/2 28/5/2 27/6/2
f 27/6/3 28/5/3 26/7/3 25/8/3
f 25/8/4 26/7/4 22/9/4 21/10/4
f 23/11/5 27/6/5 25/8/5 21/12/5
f 28/5/6 24/13/6 22/14/6 26/7/6
f 29/1/1 30/2/1 32/3/1 31/4/1
f 31/4/2 32/3/2 36/5/2 35/6/2
f 35/6/3 36/5/3 34/7/3 33/8/3
f 33/8/4 34/7/4 30/9/4 29/10/4
f 31/11/5 35/6/5 33/8/5 29/12/5
f 36/5/6 32/13/6 30/14/6 34/7/6
usemtl マテリアル.009
f 37/15/1 38/15/1 40/15/1 39/15/1
f 39/15/2 40/15/2 44/15/2 43/15/2
f 43/15/3 44/15/3 42/15/3 41/15/3
f 41/15/4 42/15/4 38/15/4 37/15/4
f 39/15/5 43/15/5 41/15/5 37/15/5
f 44/15/6 40/15/6 38/15/6 42/15/6
f 45/15/1 46/15/1 48/15/1 47/15/1
f 47/15/2 48/15/2 52/15/2 51/15/2
f 51/15/3 52/15/3 50/15/3 49/15/3
f 49/15/4 50/15/4 46/15/4 45/15/4
f 47/15/5 51/15/5 49/15/5 45/15/5
f 52/15/6 48/15/6 46/15/6 50/15/6
f 53/15/1 54/15/1 56/15/1 55/15/1
f 55/15/2 56/15/2 60/15/2 59/15/2
f 59/15/3 60/15/3 58/15/3 57/15/3
f 57/15/4 58/15/4 54/15/4 53/15/4
f 55/15/5 59/15/5 57/15/5 53/15/5
f 60/15/6 56/15/6 54/15/6 58/15/6
