# Blender 4.1.1
# www.blender.org
mtllib stage03LightCollision.mtl
o 立方体.001
v -1.000000 -1.700000 19.000000
v -1.000000 0.300000 19.000000
v -1.000000 -1.700000 7.000000
v -1.000000 0.300000 7.000000
v 1.000000 -1.700000 19.000000
v 1.000000 0.300000 19.000000
v 1.000000 -1.700000 7.000000
v 1.000000 0.300000 7.000000
v 3.000000 0.300000 5.000000
v 3.000000 2.300000 5.000000
v 3.000000 0.300000 3.000000
v 3.000000 2.300000 3.000000
v 5.000000 0.300000 5.000000
v 5.000000 2.300000 5.000000
v 5.000000 0.300000 3.000000
v 5.000000 2.300000 3.000000
v -1.000000 -1.700000 9.000000
v -1.000000 -1.700000 11.000000
v -1.000000 -1.700000 13.000000
v -1.000000 -1.700000 15.000000
v -1.000000 -1.700000 17.000000
v -1.000000 0.300000 17.000000
v -1.000000 0.300000 15.000000
v -1.000000 0.300000 13.000000
v -1.000000 0.300000 11.000000
v -1.000000 0.300000 9.000000
v 1.000000 -1.700000 17.000000
v 1.000000 -1.700000 15.000000
v 1.000000 -1.700000 13.000000
v 1.000000 -1.700000 11.000000
v 1.000000 -1.700000 9.000000
v 1.000000 0.300000 9.000000
v 1.000000 0.300000 11.000000
v 1.000000 0.300000 13.000000
v 1.000000 0.300000 15.000000
v 1.000000 0.300000 17.000000
v 1.000000 -5.700000 7.000000
v -1.000000 -5.700000 7.000000
v 1.000000 -5.700000 9.000000
v -1.000000 -5.700000 9.000000
v -1.000000 -5.700000 11.000000
v -1.000000 -5.700000 13.000000
v -1.000000 -5.700000 15.000000
v -1.000000 -5.700000 17.000000
v 1.000000 -5.700000 17.000000
v 1.000000 -5.700000 15.000000
v 1.000000 -5.700000 13.000000
v 1.000000 -5.700000 11.000000
v -1.000000 -9.700000 9.000000
v -1.000000 -9.700000 11.000000
v -1.000000 -9.700000 13.000000
v -1.000000 -9.700000 15.000000
v 1.000000 -9.700000 15.000000
v 1.000000 -9.700000 13.000000
v 1.000000 -9.700000 11.000000
v 1.000000 -9.700000 9.000000
vn -1.0000 -0.0000 -0.0000
vn -0.0000 -0.0000 -1.0000
vn 1.0000 -0.0000 -0.0000
vn -0.0000 -0.0000 1.0000
vn -0.0000 -1.0000 -0.0000
vn -0.0000 1.0000 -0.0000
vt 0.375000 0.208333
vt 0.625000 0.208333
vt 0.625000 0.250000
vt 0.375000 0.250000
vt 0.625000 0.500000
vt 0.375000 0.500000
vt 0.375000 0.708333
vt 0.625000 0.708333
vt 0.625000 0.750000
vt 0.375000 0.750000
vt 0.625000 1.000000
vt 0.375000 1.000000
vt 0.125000 0.708333
vt 0.125000 0.750000
vt 0.875000 0.708333
vt 0.875000 0.750000
vt 0.375000 0.000000
vt 0.625000 0.000000
vt 0.125000 0.500000
vt 0.875000 0.500000
vt 0.875000 0.541667
vt 0.625000 0.541667
vt 0.875000 0.583333
vt 0.625000 0.583333
vt 0.875000 0.625000
vt 0.625000 0.625000
vt 0.875000 0.666667
vt 0.625000 0.666667
vt 0.375000 0.083333
vt 0.375000 0.125000
vt 0.375000 0.583333
vt 0.375000 0.625000
vt 0.375000 0.166667
vt 0.375000 0.666667
vt 0.375000 0.541667
vt 0.625000 0.041667
vt 0.375000 0.041667
vt 0.625000 0.083333
vt 0.625000 0.125000
vt 0.625000 0.166667
vt 0.125000 0.541667
vt 0.125000 0.666667
vt 0.125000 0.583333
vt 0.125000 0.625000
s 0
f 17/1/1 26/2/1 4/3/1 3/4/1
f 3/4/2 4/3/2 8/5/2 7/6/2
f 27/7/3 36/8/3 6/9/3 5/10/3
f 5/10/4 6/9/4 2/11/4 1/12/4
f 21/13/5 27/7/5 5/10/5 1/14/5
f 36/8/6 22/15/6 2/16/6 6/9/6
f 9/17/1 10/18/1 12/3/1 11/4/1
f 11/4/2 12/3/2 16/5/2 15/6/2
f 15/6/3 16/5/3 14/9/3 13/10/3
f 13/10/4 14/9/4 10/11/4 9/12/4
f 11/19/5 15/6/5 13/10/5 9/14/5
f 16/5/6 12/20/6 10/16/6 14/9/6
f 8/5/6 4/20/6 26/21/6 32/22/6
f 32/22/6 26/21/6 25/23/6 33/24/6
f 33/24/6 25/23/6 24/25/6 34/26/6
f 34/26/6 24/25/6 23/27/6 35/28/6
f 35/28/6 23/27/6 22/15/6 36/8/6
f 20/29/1 19/30/1 42/30/1 43/29/1
f 30/31/3 29/32/3 47/32/3 48/31/3
f 19/30/1 18/33/1 41/33/1 42/30/1
f 29/32/3 28/34/3 46/34/3 47/32/3
f 27/7/4 21/13/4 44/13/4 45/7/4
f 7/6/3 8/5/3 32/22/3 31/35/3
f 31/35/3 32/22/3 33/24/3 30/31/3
f 30/31/3 33/24/3 34/26/3 29/32/3
f 29/32/3 34/26/3 35/28/3 28/34/3
f 28/34/3 35/28/3 36/8/3 27/7/3
f 1/17/1 2/18/1 22/36/1 21/37/1
f 21/37/1 22/36/1 23/38/1 20/29/1
f 20/29/1 23/38/1 24/39/1 19/30/1
f 19/30/1 24/39/1 25/40/1 18/33/1
f 18/33/1 25/40/1 26/2/1 17/1/1
f 38/19/5 37/6/5 39/35/5 40/41/5
f 42/30/1 41/33/1 50/33/1 51/30/1
f 47/32/3 46/34/3 53/34/3 54/32/3
f 39/35/3 48/31/3 55/31/3 56/35/3
f 43/42/5 46/34/5 45/7/5 44/13/5
f 7/6/3 31/35/3 39/35/3 37/6/3
f 17/1/1 3/4/1 38/4/1 40/1/1
f 31/35/3 30/31/3 48/31/3 39/35/3
f 3/4/2 7/6/2 37/6/2 38/4/2
f 21/37/1 20/29/1 43/29/1 44/37/1
f 28/34/3 27/7/3 45/7/3 46/34/3
f 18/33/1 17/1/1 40/1/1 41/33/1
f 49/41/5 56/35/5 55/31/5 50/43/5
f 50/43/5 55/31/5 54/32/5 51/44/5
f 51/44/5 54/32/5 53/34/5 52/42/5
f 40/41/2 39/35/2 56/35/2 49/41/2
f 48/31/3 47/32/3 54/32/3 55/31/3
f 43/29/1 42/30/1 51/30/1 52/29/1
f 46/34/4 43/42/4 52/42/4 53/34/4
f 41/33/1 40/1/1 49/1/1 50/33/1
